<?xml version="1.0" encoding="UTF-8"?>
<svg id="Layer_1" xmlns="http://www.w3.org/2000/svg" xmlns:xlink="http://www.w3.org/1999/xlink" version="1.1" viewBox="0 0 2000 2000">
  <!-- Generator: Adobe Illustrator 29.0.1, SVG Export Plug-In . SVG Version: 2.1.0 Build 192)  -->
  <defs>
    <style>
      .st0 {
        mask: url(#mask);
      }

      .st1 {
        fill: url(#radial-gradient);
      }

      .st2 {
        stroke: url(#linear-gradient2);
      }

      .st2, .st3, .st4, .st5 {
        fill: none;
        stroke-miterlimit: 10;
        stroke-width: 3.61px;
      }

      .st3 {
        stroke: url(#linear-gradient1);
      }

      .st4 {
        stroke: url(#linear-gradient3);
      }

      .st5 {
        stroke: url(#linear-gradient);
      }
    </style>
    <radialGradient id="radial-gradient" cx="1094.48" cy="940.52" fx="1094.48" fy="940.52" r="958.23" gradientTransform="translate(121.65 118.58) rotate(9.44) scale(1 .69)" gradientUnits="userSpaceOnUse">
      <stop offset="0" stop-color="#fff"/>
      <stop offset=".13" stop-color="#cdcdcd"/>
      <stop offset=".31" stop-color="#8f8f8f"/>
      <stop offset=".48" stop-color="#5c5c5c"/>
      <stop offset=".64" stop-color="#343434"/>
      <stop offset=".78" stop-color="#171717"/>
      <stop offset=".91" stop-color="#060606"/>
      <stop offset="1" stop-color="#000"/>
    </radialGradient>
    <mask id="mask" x="1289.86" y="345.83" width="1516.96" height="1516.96" maskUnits="userSpaceOnUse">
      <rect class="st1" x="1289.86" y="345.83" width="1516.96" height="1516.96"/>
    </mask>
    <linearGradient id="linear-gradient" x1="1610.61" y1="1766.4" x2="2424.01" y2="357.56" gradientUnits="userSpaceOnUse">
      <stop offset=".14" stop-color="#fff" stop-opacity="0"/>
      <stop offset=".37" stop-color="#fff"/>
      <stop offset=".39" stop-color="#fff" stop-opacity=".86"/>
      <stop offset=".44" stop-color="#fff" stop-opacity=".56"/>
      <stop offset=".49" stop-color="#fff" stop-opacity=".32"/>
      <stop offset=".53" stop-color="#fff" stop-opacity=".15"/>
      <stop offset=".56" stop-color="#fff" stop-opacity=".05"/>
      <stop offset=".58" stop-color="#fff" stop-opacity=".01"/>
      <stop offset=".76" stop-color="#fff" stop-opacity="0"/>
    </linearGradient>
    <linearGradient id="linear-gradient1" x1="1642.19" y1="1711.67" x2="2392.41" y2="412.25" xlink:href="#linear-gradient"/>
    <linearGradient id="linear-gradient2" x1="1676.13" y1="1653.71" x2="2359.28" y2="470.46" xlink:href="#linear-gradient"/>
    <linearGradient id="linear-gradient3" x1="1723.71" y1="1570.18" x2="2310.27" y2="554.23" xlink:href="#linear-gradient"/>
  </defs>
  <g class="st0">
    <g>
      <path class="st5" d="M1611.15,1732.53c-26.21-.22-50.25-.07-74.59-11.46-43.38-20.3-69.6-64.83-69.6-112.3.05-92.28.01-184.52-.03-276.76-55.28-10.06-96.43-58.39-96.43-115.85,0,0,.83-328.07.94-387.13,0-.37,0-.76,0-1.16-1.13-34.96,12.15-68.99,37.23-94.63.36-.37.72-.73,1.08-1.09,33.28-33.15,66.47-66.4,99.65-99.65l35.22-35.28c37.31-37.36,74.61-74.73,111.86-112.21,1.43-1.45,3.08-3.05,4.76-4.67,22.2-28.46,56.4-45.34,92.86-45.34,0,0,709.72.89,767.77.83,33.86,0,65.09,12.85,88.09,36.19,13.31,13.51,35.55,42.99,34.88,88.66,0,.2,0,.39-.01.59-.26,13.45-.39,27.35-.39,42.51,0,0-.25,194.81-.31,234.07,24.63,7.38,41.47,21.14,50.68,30.46,16.06,16.27,35.07,44.87,34.5,88.71,0,0-.16,148.13-.06,200.99,0,35.56-13.92,68.72-39.22,93.62-14.26,14.08-28.47,28.21-42.68,42.33-3.66,3.64-7.32,7.27-10.98,10.91.09,12.9.19,25.8.35,38.71.53,35.38-13.07,68.88-38.29,94.06l-.53.53c-34.59,34.07-69.12,68.26-103.65,102.45l-8.02,7.94c-49.46,49.01-98.94,98.03-148.35,147.16-25.22,25.22-58.04,37.04-93.25,37.95-166.75,4.32-599.68-.86-633.47-1.12Z"/>
      <path class="st5" d="M1611.15,1732.53c-26.21-.22-50.25-.07-74.59-11.46-43.38-20.3-69.6-64.83-69.6-112.3.05-92.28.01-184.52-.03-276.76-55.28-10.06-96.43-58.39-96.43-115.85,0,0,.83-328.07.94-387.13,0-.37,0-.76,0-1.16-1.13-34.96,12.15-68.99,37.23-94.63.36-.37.72-.73,1.08-1.09,33.28-33.15,66.47-66.4,99.65-99.65l35.22-35.28c37.31-37.36,74.61-74.73,111.86-112.21,1.43-1.45,3.08-3.05,4.76-4.67,22.2-28.46,56.4-45.34,92.86-45.34,0,0,709.72.89,767.77.83,33.86,0,65.09,12.85,88.09,36.19,13.31,13.51,35.55,42.99,34.88,88.66,0,.2,0,.39-.01.59-.26,13.45-.39,27.35-.39,42.51,0,0-.25,194.81-.31,234.07,24.63,7.38,41.47,21.14,50.68,30.46,16.06,16.27,35.07,44.87,34.5,88.71,0,0-.16,148.13-.06,200.99,0,35.56-13.92,68.72-39.22,93.62-14.26,14.08-28.47,28.21-42.68,42.33-3.66,3.64-7.32,7.27-10.98,10.91.09,12.9.19,25.8.35,38.71.53,35.38-13.07,68.88-38.29,94.06l-.53.53c-34.59,34.07-69.12,68.26-103.65,102.45l-8.02,7.94c-49.46,49.01-98.94,98.03-148.35,147.16-25.22,25.22-58.04,37.04-93.25,37.95-166.75,4.32-599.68-.86-633.47-1.12Z"/>
      <path class="st3" d="M2046.9,1672.18c-159.06,0-342.23-1.89-411.18-2.59-12.12-.12-20.42-.21-24.08-.24l-2.3-.02c-22.27-.18-35.38-.52-46-5.49-20.17-9.44-33.2-31.06-33.2-55.07.05-96.28.01-193.36-.03-276.79-.02-30.52-21.84-56.67-51.87-62.13-25.8-4.69-44.53-27.25-44.56-53.64.02-7.42.83-329.04.94-387.06,0-.04,0-.78,0-.78,0-.85,0-1.69-.03-2.54-.58-17.94,6.26-35.13,19.25-48.41,0,0,.45-.46.5-.5,33.9-33.76,67.39-67.32,99.78-99.78l35.22-35.28c34.42-34.47,73.43-73.54,111.96-112.31.05-.06.11-.11.16-.16,1.08-1.1,2.59-2.56,3.63-3.56,2.14-2.07,4.14-4.28,5.97-6.63,10.26-13.16,26.35-21.01,43.04-21.01,6.52,0,660.72.83,759.06.83h8.78c16.92,0,31.82,6,43.01,17.35,7.78,7.89,16.98,21.8,16.71,43.25,0,.08,0,.35,0,.41-.27,13.8-.4,28.11-.4,43.75h0s-.25,194.72-.31,233.97c-.04,27.94,18.27,52.6,45.04,60.62,12,3.6,20.11,10.53,23.87,14.34,11.18,11.33,16.51,25.56,16.27,43.48,0,.25,0,.51,0,.76,0,1.48-.16,148.76-.06,201.14-.02,18.64-7.06,35.42-20.36,48.52-13.94,13.77-27.67,27.41-42.89,42.54l-10.97,10.9c-12.05,11.97-18.77,28.29-18.65,45.27.09,13.17.19,26.06.35,39.04,0,.06,0,.11,0,.17.27,18.16-6.7,35.3-19.63,48.27,0,0-.32.32-.36.35-35.3,34.78-71.67,70.79-103.76,102.56l-13.85,13.72c-46.75,46.33-95.1,94.23-142.61,141.47-.04.04-.09.09-.13.13-12.37,12.37-29.26,18.92-50.21,19.47-43.34,1.12-109.31,1.69-196.08,1.69Z"/>
      <path class="st2" d="M2046.9,1609c-158.72,0-341.65-1.88-410.51-2.59-12.22-.13-20.59-.21-24.27-.24l-2.27-.02c-3.09-.02-7.36-.06-11.47-.15-2.81-.06-5.05-2.36-5.05-5.17.04-94.43,0-188.13-.04-268.88-.01-21.7-5.66-43.26-16.35-62.15s-25.71-34.34-43.88-45.49c-5.16-3.17-10.54-5.96-16.1-8.35-3.87-1.66-7.65-2.75-11.7-3.89-3.12-.87-6.34-2.39-7.87-5.25-2.32-4.34-.47-10.08-.46-14.75.02-7.25.04-14.5.05-21.74.04-14.79.07-29.58.11-44.36.04-16.85.08-33.7.13-50.55.04-17.83.09-35.65.13-53.48.04-17.72.09-35.44.13-53.16.04-16.53.08-33.06.12-49.59.03-14.25.07-28.51.1-42.76.03-10.9.05-21.79.07-32.69.02-8.25-2.34-18.57,4.18-25.06,2.45-2.44,4.9-4.89,7.36-7.33,4.89-4.88,9.78-9.75,14.66-14.63,9.7-9.69,19.4-19.38,29.09-29.08,15.04-15.05,30.07-30.11,45.1-45.17l36.04-36.11c34.4-34.45,73.39-73.5,111.91-112.26.1-.1.23-.23.34-.34.74-.75,1.78-1.75,2.49-2.44,2.67-2.58,5.25-5.29,7.71-8.12.99-1.14,2.42-1.82,3.93-1.81,68.77.09,659.34.82,752.58.82,2.89,0,5.21,2.36,5.17,5.24-.18,11.52-.26,23.5-.26,36.33v.37c-.01,10.29-.25,195.35-.31,233.51-.08,52.55,33.17,100.08,81.86,118.46,2,.76,3.32,2.68,3.32,4.82-.02,23.94-.15,149.09-.06,197.12,0,1.7-.26,2.3-1.51,3.53-14.04,13.87-27.82,27.56-43.11,42.75l-10.96,10.88c-23.95,23.8-37.55,56.8-37.3,90.56.09,12.59.19,26.01.36,39.38,0,.06,0,.11,0,.17v-.35s0,.76,0,.76v-.25c0,.91-.17,1.63-1.11,2.6l-.25.24.2-.19c-35.27,34.75-71.59,70.71-103.64,102.44l-15.12,14.97c-46.44,46.02-94.46,93.61-141.67,140.54,0,0-.08.08-.11.11-.49.21-2.6,1.01-7.32,1.13-42.81,1.11-108.23,1.67-194.45,1.67Z"/>
      <path class="st4" d="M2046.9,1545.81c-126.91,0-269.49-1.21-356.47-2.05-18.77-.18-33.89-15.46-33.89-34.23,0-61.1-.03-120.64-.06-177.62-.03-63.7-31.45-121.08-81.29-155.64-9.33-6.47-15-17.02-14.97-28.38.23-91.35.55-219.05.7-284.69.02-9.05,3.63-17.73,10.04-24.12,24.44-24.41,48.48-48.5,71.93-72l36.04-36.11c29.65-29.69,62.71-62.8,96.03-96.29,6.43-6.47,15.17-10.1,24.3-10.09,122.4.15,451.44.55,621.38.71,18.91.02,34.21,15.35,34.19,34.26-.08,60.7-.2,152.38-.24,177.97-.09,59.15,27.32,113.62,71.97,148.96,8.27,6.54,13.16,16.44,13.15,26.98-.02,32.5-.05,73.28-.04,106.01,0,9.12-3.63,17.86-10.11,24.28-5.15,5.12-10.4,10.33-15.84,15.74l-10.94,10.87c-35.93,35.7-56.32,85.21-55.96,135.84,0,.05,0,.09,0,.14.06,9.23-3.61,18.11-10.18,24.6-26.17,25.84-52,51.42-75.53,74.72l-15.12,14.98c-35.92,35.59-75.74,75.06-115.2,114.24-6.27,6.23-14.71,9.79-23.55,9.93-40.51.65-94.23.98-160.33.98Z"/>
    </g>
  </g>
</svg>