<?xml version="1.0" encoding="UTF-8"?>
<svg id="Layer_1" xmlns="http://www.w3.org/2000/svg" xmlns:xlink="http://www.w3.org/1999/xlink" version="1.1" viewBox="0 0 1000 1000">
  <!-- Generator: Adobe Illustrator 29.0.1, SVG Export Plug-In . SVG Version: 2.1.0 Build 192)  -->
  <defs>
    <style>
      .st0 {
        fill: #662d91;
      }

      .st1 {
        fill: #25a9e0;
      }

      .st2 {
        fill: url(#radial-gradient);
      }

      .st3 {
        fill: #26a8df;
      }

      .st4 {
        fill: #fefefe;
      }
    </style>
    <radialGradient id="radial-gradient" cx="-41.62" cy="706.34" fx="-41.62" fy="706.34" r="1765.86" gradientUnits="userSpaceOnUse">
      <stop offset=".05" stop-color="#fff"/>
      <stop offset=".21" stop-color="#fff" stop-opacity=".86"/>
      <stop offset=".54" stop-color="#fff" stop-opacity=".51"/>
      <stop offset="1" stop-color="#fff" stop-opacity="0"/>
    </radialGradient>
  </defs>
  <path class="st2" d="M222.76,909.88c-16.58-.14-31.8-.05-47.2-7.25-27.45-12.85-44.04-41.02-44.04-71.07.03-58.4,0-116.77-.02-175.14-34.98-6.36-61.02-36.95-61.02-73.31,0,0,.52-207.61.6-244.98,0-.23,0-.48,0-.74-.71-22.12,7.69-43.66,23.56-59.88.23-.23.45-.46.68-.69,21.06-20.98,42.06-42.02,63.06-63.06l22.29-22.33c23.61-23.64,47.22-47.29,70.79-71.01.91-.92,1.95-1.93,3.01-2.96,14.05-18.01,35.69-28.69,58.77-28.69,0,0,449.12.56,485.85.52,21.42,0,41.19,8.13,55.74,22.9,8.42,8.55,22.5,27.21,22.08,56.11,0,.13,0,.25,0,.37-.17,8.51-.25,17.31-.25,26.9,0,0-.16,123.28-.2,148.13,15.58,4.67,26.24,13.38,32.07,19.28,10.16,10.3,22.2,28.39,21.83,56.13,0,0-.1,93.74-.04,127.19,0,22.5-8.81,43.49-24.82,59.24-9.02,8.91-18.02,17.85-27.01,26.79-2.31,2.3-4.63,4.6-6.95,6.9.06,8.16.12,16.33.22,24.49.34,22.39-8.27,43.59-24.23,59.52l-.34.33c-21.89,21.56-43.74,43.2-65.59,64.83l-5.07,5.02c-31.3,31.02-62.61,62.04-93.88,93.13-15.96,15.96-36.73,23.44-59.01,24.01-105.52,2.73-379.48-.54-400.87-.71Z"/>
  <g>
    <path class="st0" d="M313.23,163.3h253.71v40.37c.42.2.84.4,1.26.6.76-1.02,1.41-2.16,2.31-3.05,11.94-11.84,23.94-23.62,35.86-35.48,1.35-1.34,2.69-1.9,4.6-1.9,62.73.04,125.45.06,188.18-.03,2.75,0,3.28.9,3.22,3.4-.21,9.45-.26,18.91-.27,28.37-.1,72.3-.15,144.59-.31,216.88,0,2.82.97,3.19,3.42,3.15,15.29-.29,30.58-.46,45.88-.6,5.33-.05,4.73-.72,4.72,4.56-.02,42.28-.09,84.56-.04,126.84,0,2.58-.81,4.29-2.59,6.05-18.12,17.89-36.13,35.88-54.24,53.78-1.54,1.52-2.18,3.02-2.15,5.19.2,17.75.24,35.5.45,53.24.03,2.4-.62,4.1-2.35,5.81-22.63,22.29-45.2,44.64-67.77,66.99-32.36,32.05-64.71,64.11-97.02,96.21-1.61,1.6-3.18,2.31-5.48,2.31-32.94-.03-65.88.03-98.82.06q-4.83,0-4.98-4.86c-.01-.47,0-.93,0-1.4-.04-16.35-.07-32.7-.14-49.05,0-1.09.4-2.28-.47-3.49-.57.51-1.08.93-1.56,1.4-19.18,18.63-38.36,37.25-57.49,55.92-1.37,1.34-2.72,1.89-4.61,1.87-17.17-.18-34.33-.27-51.5-.39-16.35-.11-32.69-.23-49.04-.35-1.59-.01-3.23.45-3.17-2.31.24-10.5.25-21.01.35-31.52.02-1.78,0-3.55,0-5.33-.48-.31-.95-.61-1.43-.92-12.82,13.25-25.65,26.49-38.42,39.79-1.4,1.45-2.77,2.04-4.86,1.99-32.79-.71-65.58-1.36-98.37-1.86-3.13-.05-4.06-.73-4.06-4,.06-69.61,0-139.22-.04-208.83,0-11.91-.09-23.83.07-35.74.03-2.63-.66-3.29-3.27-3.29-17.63.01-35.27-.15-52.9-.28-1.63-.01-3.25-.22-4.88-.34,0-41.81,0-83.63,0-125.44.12-1.74.33-3.47.34-5.21.1-38.06.17-76.11.25-114.17,0-.93.08-1.88-.02-2.8-.25-2.38.61-4.11,2.34-5.83,28.18-28.12,56.3-56.31,84.42-84.49,24-24.05,48.03-48.07,71.95-72.19,3.08-3.11,6.5-5.94,8.93-9.66ZM603.36,216.6s.06-.06.06-.06c-.97.82-2,1.58-2.89,2.47-7.78,7.71-15.57,15.41-23.27,23.19-1.18,1.19-3.05,1.85-3.29,3.85l.04-.04c-1.61.08-2.29,1.48-3.24,2.41-8.73,8.53-17.42,17.1-26.12,25.66-.04-1.4-.12-2.79-.12-4.19,0-26.47-.05-52.94.06-79.41.01-2.8-.78-3.43-3.47-3.41-17.26.12-34.52.06-51.78.07-1.27,0-2.54.16-3.81.25-.74.55-1.56,1.02-2.2,1.67-18.26,18.05-36.51,36.11-54.74,54.2-.77.76-2.03,1.29-1.86,2.73l.04-.04c-1.74-.24-2.32,1.32-3.24,2.22-8.72,8.53-17.38,17.11-26.05,25.68-.05-1.4-.13-2.79-.13-4.19,0-26.48-.02-52.97.02-79.45,0-1.91.07-3.17-2.64-3.15-17.97.14-35.94.07-53.9.07-1.13,0-2.44-.28-2.49,1.51-.45.37-.92.71-1.33,1.12-29.29,28.99-58.58,58-87.87,86.99-25.89,25.62-51.79,51.25-77.72,76.83-1.55,1.53-2.13,3.11-2.13,5.25.04,65.62.03,131.25.06,196.87,0,1.05-.54,2.35.86,3.2.7-.63,1.41-1.23,2.07-1.88,14.03-13.88,28.07-27.74,42.07-41.65,38.01-37.78,76-75.59,114.02-113.37,3.31-3.29,6.75-6.43,10.13-9.65,9.89.04,19.79.06,29.68.11,9.66.05,19.31.14,28.97.21-.6,1.61-1.99,2.57-3.14,3.71-34.93,34.73-69.87,69.44-104.82,104.14-1.42,1.41-2.65,2.7-2.62,5.03.08,7.23-.14,14.47-.16,21.7,0,1.15-.6,2.56.84,3.55.72-.65,1.42-1.25,2.08-1.9,21.06-20.86,42.15-41.69,63.17-62.59,28.14-27.98,56.22-56.02,84.35-84,6.37-6.33,12.88-12.51,19.33-18.76,9.63.11,19.26.21,28.9.32-.21.27-.4.58-.64.82-20.64,20.55-41.25,41.12-61.94,61.62-4.8,4.75-9.76,9.34-14.28,14.36-2.82,0-5.64.02-8.46.02-1.73-2-2.25.39-2.87,1-13.75,13.5-27.44,27.06-41.11,40.64-41.11,40.81-82.21,81.64-123.36,122.41-1.83,1.81-2.47,3.66-2.46,6.17.06,14.01-.07,28.03-.07,42.04-.01,52.21,0,104.42.02,156.63,0,.95-.49,2.1.81,3.05,56.29-55.33,112.58-110.65,168.87-165.98,18.12-.08,36.24-.16,54.36-.26,1.5,0,2.99-.18,4.49-.27-.17,1.41-1.24,2.19-2.15,3.09-25.72,25.45-51.43,50.9-77.19,76.31-1.43,1.41-2.08,2.85-2.08,4.9.06,26.5.03,52.99.06,79.49,0,.84-.43,1.87.68,2.61.52-.45,1.07-.86,1.55-1.34,31.74-31.14,63.48-62.29,95.21-93.44,24.07-23.63,48.13-47.28,72.19-70.91,16.63.02,33.26.07,49.89.03,2.87,0,6.52,1.23,8.41-.53,1.75-1.63.27-5.29.62-8.03.01-.12.04-.23.06-.34,4.22-4.18,8.47-8.34,12.66-12.56,22.63-22.74,45.24-45.5,67.86-68.25,8.63-.04,17.25-.13,25.88-.09,1.11,0,2.59-.81,3.39.79-1.03.94-2.1,1.85-3.09,2.83-15.35,15.21-30.71,30.4-46.02,45.64-39.23,39.06-78.44,78.15-117.68,117.2-1.32,1.31-2.06,2.63-2.08,4.56-.07,6.53-.36,13.07-.48,19.6-.39,19.96-.75,39.92-1.08,59.88-.03,1.63-.8,3.35.21,5.28,1.02-.92,1.8-1.59,2.54-2.32,19.37-19.11,38.74-38.22,58.09-57.36,29.06-28.75,58.09-57.53,87.16-86.27,7.47-7.39,15.04-14.68,22.56-22.02,18.44,0,36.87-.08,55.31.05,2.92.02,3.64-.73,3.63-3.64-.12-26.96-.03-53.92-.13-80.88,0-2.54.51-3.38,3.22-3.31,7.81.2,15.64-.02,23.46.13,2.35.05,2.9-.71,2.87-2.94-.13-7.7.06-15.41-.11-23.11-.06-2.62.49-3.6,3.37-3.52,7.7.22,15.41-.03,23.11.14,2.48.05,3.08-.66,3.07-3.1-.09-27.43-.09-54.85,0-82.28,0-2.52-.74-3.05-3.13-3.04-17.74.1-35.48.05-53.22.07-.91,0-1.82.21-2.73.32-1.2,1.1-2.43,2.17-3.58,3.32-18.34,18.26-36.66,36.53-54.99,54.79-.05-18.42-.16-36.84-.08-55.26.01-2.64-.69-3.26-3.28-3.25-17.61.12-35.22.06-52.83.08-.99,0-2.11-.41-2.97.51-2.5,2.44-5.03,4.86-7.5,7.33-14.47,14.41-28.93,28.84-43.39,43.26-.04-15.47-.17-30.93-.06-46.39.02-2.83-.84-3.45-3.49-3.38-5.81.16-11.62-.03-17.44-.08,8.74-8.71,17.37-17.53,26.24-26.1,7.36-7.12,14.24-14.74,21.99-21.45.58.03,1.17.08,1.75.08,47.75-.06,95.5-.15,143.25-.12,2.18,0,2.16-.88,2.16-2.43-.02-37.59-.03-75.18.03-112.77,0-2.06-.68-2.49-2.6-2.49-27.79.05-55.57.06-83.36,0-2.06,0-2.54.69-2.52,2.61.09,8.05.11,16.11-.01,24.16-.03,2.12.52,2.8,2.72,2.76,7.94-.13,15.88.05,23.82-.11,2.51-.05,3.07.72,3.05,3.13-.1,17.63-.04,35.26-.09,52.88,0,.91.67,2.11-.61,2.79v-58.22c-1.45,1.33-2.24,2-2.97,2.72-10.18,10.12-20.32,20.28-30.54,30.36-8.14,8.03-16.36,15.97-24.54,23.95-.07-9.37-.14-18.73-.2-28.1,8.85-8.81,17.66-17.66,26.6-26.39,1.83-1.79,2.56-3.63,2.51-6.16-.14-7.12-.03-14.24-.07-21.36,0-1.09.57-2.67-.68-3.13-1.17-.44-1.95,1.01-2.74,1.8-10.69,10.6-21.34,21.26-32.05,31.84-7.55,7.46-15.19,14.84-22.79,22.25-.05-28.36-.08-56.72-.19-85.08,0-2.13,1.05-2.13,2.59-2.12,7.94.04,15.88-.07,23.81.07,2.39.04,3.2-.5,3.14-3.03-.18-7.47.15-14.95-.16-22.4-.14-3.45.88-4.15,4.2-4.13,36.65.13,73.31.05,109.96.14,2.7,0,3.88-.33,3.77-3.48-.27-7.46-.23-14.94-.02-22.4.08-2.85-.59-3.68-3.58-3.68-46.69.1-93.38.11-140.07-.01-3.22,0-3.77.94-3.77,3.89,0,8.49.53,17-.27,25.48,0-8.37,0-16.74-.02-25.12,0-.79.27-1.84-.47-2.27-1.05-.6-1.67.55-2.27,1.13-2.53,2.4-5.03,4.84-7.43,7.36-6.15,6.48-13.05,12.23-18.83,19.08Z"/>
    <path class="st1" d="M399.52,646.66c-56.29,55.33-112.58,110.65-168.87,165.98-1.29-.95-.81-2.09-.81-3.05-.03-52.21-.03-104.42-.02-156.63,0-14.01.13-28.03.07-42.04-.01-2.51.63-4.36,2.46-6.17,41.16-40.77,82.25-81.6,123.36-122.41,13.68-13.58,27.36-27.14,41.11-40.64.62-.61,1.15-3,2.87-1-.1,1.27-.27,2.54-.27,3.81-.01,66.1-.01,132.2,0,198.3,0,1.28.06,2.57.08,3.85Z"/>
    <path class="st1" d="M338.46,392.36c-3.38,3.21-6.82,6.36-10.13,9.65-38.02,37.78-76,75.59-114.02,113.37-14,13.91-28.04,27.77-42.07,41.65-.66.65-1.37,1.25-2.07,1.88-1.4-.86-.86-2.15-.86-3.2-.03-65.62-.02-131.25-.06-196.87,0-2.13.58-3.72,2.13-5.25,25.94-25.58,51.83-51.2,77.72-76.83,29.3-28.99,58.58-57.99,87.87-86.99.41-.41.89-.75,1.33-1.12.04,1.51.13,3.03.13,4.54,0,66.39,0,132.78,0,199.17Z"/>
    <path class="st4" d="M399.52,646.66c-.03-1.28-.08-2.57-.08-3.85,0-66.1,0-132.2,0-198.3,0-1.27.18-2.54.27-3.81,2.82,0,5.64-.02,8.46-.02,9.72,0,19.43.02,29.15.02,6.16.04,12.32.16,18.48.09,1.97-.03,2.59.53,2.55,2.53-.12,6.16-.04,12.32-.04,18.49q0,8.87,9.07,8.33c4.08.04,8.16.07,12.24.14,2.55.04,5.76-.77,7.47.47,1.87,1.35.28,4.8.79,7.28,0,6.96,0,13.92,0,20.89.57,1.38,1.79.75,2.69.76,7.82.06,15.65-.1,23.47.11,2.77.07,3.23-.9,3.21-3.38-.07-8.74.11-17.49.2-26.24,0,0-.02,0-.02,0,8.96.03,17.92.02,26.89.14,1.87.02,2.37-.62,2.35-2.41-.12-8.84-.12-17.69-.17-26.53,3.04-1.22,6.25-.08,9.34-.66,9.61,0,19.21,0,28.82,0,5.81.05,11.63.23,17.44.08,2.65-.07,3.51.55,3.49,3.38-.11,15.46.01,30.93.06,46.39-.04,13.52-.12,27.04-.12,40.56,0,15.74.08,31.47.12,47.21,0,10.04,0,20.07,0,30.11,0,9.84,0,19.67,0,29.51-.02.11-.04.23-.06.34-.35,2.75,1.13,6.4-.62,8.03-1.89,1.77-5.53.52-8.41.53-16.63.04-33.26,0-49.89-.03-.01-11.68-.02-23.36-.04-35.04-.04-17.52-.08-35.03-.13-52.55-.24-.2-.48-.58-.72-.58-8.94-.04-17.89-.02-26.83-.1-1.75-.02-1.78.94-1.77,2.2.07,8.94.11,17.88.15,26.82-.16.19-.33.38-.49.58-9.69-.07-19.38-.14-29.07-.22-.05-9.61-.11-19.22-.16-28.83-.29-.16-.58-.47-.87-.47-8.86-.04-17.71,0-26.57-.08-1.65-.01-1.89.73-1.88,2.11.08,8.97.11,17.94.16,26.91,0,9.71-.01,19.41-.02,29.12,0,9.72.01,19.43.02,29.15l-.07.3c-1.5.1-2.99.27-4.49.27-18.12.1-36.24.18-54.36.26Z"/>
    <path class="st4" d="M338.46,392.36c0-66.39,0-132.78,0-199.17,0-1.51-.08-3.03-.13-4.54.05-1.79,1.36-1.51,2.49-1.51,17.97,0,35.94.06,53.9-.07,2.71-.02,2.64,1.25,2.64,3.15-.03,26.48-.02,52.97-.02,79.45,0,1.4.09,2.79.13,4.19-.31,2.43,1.58,1.53,2.57,1.54,7.94.07,15.88-.03,23.82.09,2.25.04,2.99-.57,2.96-2.9-.13-8.87-.06-17.75-.06-26.62l-.04.04c8.88,0,17.75.08,26.63-.05,2.35-.03,2.93.72,2.89,2.97-.12,7.94.03,15.88-.1,23.82-.03,2.17.62,2.78,2.76,2.74,8.06-.12,16.12-.11,24.18,0,2.01.02,2.56-.64,2.56-2.6-.08-28.49-.09-56.99-.12-85.48,1.27-.09,2.54-.25,3.81-.25,17.26-.02,34.52.05,51.78-.07,2.69-.02,3.48.61,3.47,3.41-.12,26.47-.07,52.94-.06,79.41,0,1.4.08,2.79.12,4.19-.04,20.25-.1,40.49-.12,60.74,0,9.54.09,19.08.14,28.62,0,9.53,0,19.06,0,28.59-.2.43-.39.86-.59,1.29-16.16-.05-32.31-.08-48.47-.15-3.36-.01-6.72-.17-10.08-.25.04-9.18.07-18.36.11-27.54,0-.57.05-1.17-.6-1.5-9.63-.11-19.26-.21-28.9-.32-.02-9.57-.05-19.15-.07-28.72-.29-.16-.58-.47-.87-.47-8.86-.04-17.71,0-26.57-.08-1.65-.01-1.89.73-1.88,2.11.08,8.97.11,17.94.16,26.91-.14.15-.25.32-.32.52-8.75-.02-17.5.05-26.25-.13-2.48-.05-3.1.66-3.08,3.1.09,8.62-.08,17.25-.15,25.87v.03c-9.67-.07-19.32-.15-28.98-.21-9.89-.05-19.79-.08-29.68-.11Z"/>
    <path class="st4" d="M720.45,363.61c1.28-.69.6-1.88.61-2.79.05-17.63-.01-35.26.09-52.88.01-2.41-.54-3.18-3.05-3.13-7.94.17-15.88-.02-23.82.11-2.2.04-2.75-.64-2.72-2.76.12-8.05.1-16.11.01-24.16-.02-1.92.46-2.61,2.52-2.61,27.79.06,55.57.06,83.36,0,1.92,0,2.6.43,2.6,2.49-.06,37.59-.05,75.18-.03,112.77,0,1.55.02,2.43-2.16,2.43-47.75-.03-95.5.06-143.25.12-.58,0-1.17-.05-1.75-.08-.06-.45-.13-.89-.19-1.34.02-8.51-.02-17.01.11-25.52.03-2.02-.61-2.52-2.55-2.5-8.86.11-17.71.07-26.57.08-.1-1.27-.28-2.54-.29-3.81-.07-8.4-.1-16.8-.14-25.2-1.08-1.05-2.42-.52-3.63-.53-8.44-.08-16.89-.08-25.33-.11-.01-27.89-.02-55.79-.04-83.68,0-1.51-.15-3.02-.23-4.53l-.04.04c8.86-.02,17.71-.11,26.57,0,2.31.03,2.94-.68,2.91-2.94-.11-8.85-.03-17.71-.02-26.57l-.06.06c9.68-.06,19.35-.12,29.03-.18.79-8.48.27-16.99.27-25.48,0-2.95.55-3.9,3.77-3.89,46.69.12,93.38.12,140.07.01,2.99,0,3.66.82,3.58,3.68-.21,7.46-.25,14.94.02,22.4.11,3.16-1.07,3.49-3.77,3.48-36.65-.09-73.31,0-109.96-.14-3.32-.01-4.34.68-4.2,4.13.3,7.46-.02,14.94.16,22.4.06,2.54-.75,3.08-3.14,3.03-7.93-.15-15.87-.04-23.81-.07-1.54,0-2.6,0-2.59,2.12.11,28.36.14,56.72.19,85.08.2,2.01,1.77,1.07,2.67,1.07,8.85.09,17.7.07,26.55.08.07,9.37.14,18.73.2,28.1-.24,1.58.93,1.3,1.79,1.29,18.76-.03,37.51-.07,56.27-.11Z"/>
    <path class="st4" d="M715.41,557.83c-.8-1.6-2.27-.79-3.39-.79-8.63-.04-17.25.04-25.88.09-.07-9.47-.14-18.93-.2-28.4-.15-1.88-1.62-.93-2.38-.94-8.94-.13-17.88-.15-26.82-.2-.03-14.66-.05-29.33-.08-43.99-.04-14.54-.09-29.09-.14-43.63.86-.92,1.98-.51,2.97-.51,17.61-.03,35.22.04,52.83-.08,2.59-.02,3.29.6,3.28,3.25-.08,18.42.03,36.84.08,55.26-.05,8.86,0,17.73-.21,26.59-.06,2.56.55,3.36,3.24,3.34,17.5-.13,35-.13,52.51,0,2.7.02,3.25-.8,3.24-3.34-.1-19.37-.04-38.73-.06-58.1-.01-8.86-.09-17.73-.14-26.59.91-.11,1.82-.32,2.73-.32,17.74-.02,35.48.03,53.22-.07,2.39-.01,3.14.52,3.13,3.04-.1,27.43-.09,54.85,0,82.28,0,2.44-.59,3.15-3.07,3.1-7.7-.17-15.41.09-23.11-.14-2.89-.08-3.43.9-3.37,3.52.16,7.7-.02,15.41.11,23.11.04,2.23-.51,2.99-2.87,2.94-7.82-.15-15.64.07-23.46-.13-2.71-.07-3.23.77-3.22,3.31.09,26.96,0,53.92.13,80.88.01,2.91-.71,3.66-3.63,3.64-18.44-.14-36.87-.06-55.31-.05,0-5.59,0-11.19,0-16.78-.04-23.42-.08-46.84-.11-70.26Z"/>
    <path class="st1" d="M458.38,646.12s.07-.3.07-.3c13.71-13.46,27.43-26.91,41.11-40.4,5.8-5.72,11.52-11.52,17.28-17.28.16-.19.33-.38.49-.58,1.67-1.6,3.35-3.2,5.01-4.81,8.05-7.84,16.1-15.68,24.15-23.53.04,17.52.09,35.03.13,52.55.02,11.68.03,23.36.04,35.04-24.06,23.64-48.12,47.28-72.19,70.91-31.73,31.15-63.47,62.3-95.21,93.44-.49.48-1.04.9-1.55,1.34-1.11-.74-.68-1.76-.68-2.61-.03-26.5,0-52.99-.06-79.49,0-2.05.64-3.48,2.08-4.9,25.75-25.41,51.47-50.86,77.19-76.31.9-.89,1.98-1.68,2.15-3.09Z"/>
    <path class="st1" d="M715.41,557.83c.04,23.42.08,46.84.11,70.26,0,5.59,0,11.19,0,16.78-7.52,7.34-15.09,14.63-22.56,22.02-29.07,28.74-58.1,57.52-87.16,86.27-19.35,19.14-38.72,38.24-58.09,57.36-.73.72-1.52,1.39-2.54,2.32-1.01-1.93-.23-3.65-.21-5.28.32-19.96.69-39.92,1.08-59.88.13-6.53.41-13.07.48-19.6.02-1.93.76-3.25,2.08-4.56,39.24-39.05,78.45-78.14,117.68-117.2,15.31-15.24,30.67-30.44,46.02-45.64.99-.98,2.06-1.89,3.09-2.83Z"/>
    <path class="st3" d="M397.11,392.68s.01-.03.01-.03c.41-.22.89-.35,1.21-.66,9.43-9.38,18.85-18.78,28.27-28.18.07-.19.18-.37.32-.52,1.1-1.03,2.22-2.04,3.3-3.1,8.62-8.45,17.24-16.91,25.86-25.37.02,9.57.05,19.15.07,28.72-6.45,6.25-12.96,12.43-19.33,18.76-28.14,27.98-56.21,56.03-84.35,84-21.02,20.9-42.11,41.73-63.17,62.59-.66.65-1.36,1.25-2.08,1.9-1.44-.99-.84-2.4-.84-3.55.02-7.23.24-14.47.16-21.7-.03-2.33,1.2-3.62,2.62-5.03,34.95-34.71,69.89-69.42,104.82-104.14,1.15-1.14,2.54-2.1,3.14-3.71Z"/>
    <path class="st1" d="M656.52,439.95c.05,14.54.1,29.09.14,43.63.04,14.66.06,29.33.08,43.99-16.26,16.22-32.51,32.44-48.78,48.65-.74.74-1.55,1.4-2.33,2.09-.04-15.74-.12-31.47-.12-47.21,0-13.52.08-27.04.12-40.56,14.46-14.42,28.92-28.84,43.39-43.26,2.48-2.47,5-4.89,7.5-7.33Z"/>
    <path class="st1" d="M774.25,439.76c.05,8.86.13,17.73.14,26.59.02,19.37-.04,38.74.06,58.1.01,2.54-.54,3.36-3.24,3.34-17.5-.13-35-.13-52.51,0-2.69.02-3.3-.78-3.24-3.34.2-8.86.16-17.73.21-26.59,18.33-18.27,36.66-36.53,54.99-54.79,1.15-1.15,2.39-2.21,3.58-3.32Z"/>
    <path class="st3" d="M485.53,187.39c.03,28.49.04,56.99.12,85.48,0,1.96-.55,2.62-2.56,2.6-8.06-.1-16.12-.11-24.18,0-2.15.03-2.8-.57-2.76-2.74.12-7.94-.03-15.88.1-23.82.03-2.24-.55-3-2.89-2.97-8.87.13-17.75.05-26.63.05-.17-1.44,1.09-1.97,1.86-2.73,18.22-18.09,36.47-36.15,54.74-54.2.65-.64,1.47-1.11,2.2-1.67Z"/>
    <path class="st1" d="M574,246.01c.08,1.51.23,3.02.23,4.53.02,27.89.03,55.79.04,83.68-9.87,9.74-19.74,19.48-29.6,29.21-.05-9.54-.15-19.08-.14-28.62.01-20.25.07-40.49.12-60.74,8.7-8.56,17.39-17.13,26.12-25.66.95-.93,1.63-2.33,3.24-2.41Z"/>
    <path class="st3" d="M685.94,528.72c.07,9.47.14,18.93.2,28.4-22.62,22.75-45.23,45.51-67.86,68.25-4.19,4.21-8.44,8.37-12.66,12.56,0-9.83,0-19.67,0-29.51.94-.87,1.92-1.7,2.82-2.61,24.64-24.58,49.28-49.17,73.92-73.75,1.16-1.15,2.38-2.23,3.58-3.34Z"/>
    <path class="st1" d="M485.04,363.87c.64.32.6.93.6,1.5-.03,9.18-.07,18.36-.11,27.54-16.34,15.66-32.25,31.74-48.2,47.79-9.71,0-19.43-.02-29.15-.02,4.52-5.03,9.48-9.61,14.27-14.36,20.69-20.5,41.3-41.07,61.94-61.62.24-.24.43-.55.64-.82Z"/>
    <path class="st3" d="M632.68,391.79c.06.45.13.89.19,1.34-7.75,6.72-14.62,14.34-21.99,21.45-8.87,8.57-17.5,17.39-26.24,26.1-9.61,0-19.21,0-28.82,0,.37-.44.71-.92,1.13-1.33,24.37-24.15,48.74-48.29,73.13-72.42.52-.52.94-1.43,2.6-.73,0,8.36,0,16.96,0,25.57Z"/>
    <path class="st1" d="M720.45,363.61c-18.76.04-37.51.09-56.27.11-.86,0-2.02.28-1.79-1.29,8.18-7.98,16.41-15.92,24.54-23.95,10.22-10.08,20.36-20.24,30.54-30.36.73-.73,1.52-1.39,2.97-2.72v58.22Z"/>
    <path class="st3" d="M662.19,334.33c-8.85,0-17.7.01-26.55-.08-.9,0-2.47.94-2.67-1.07,7.6-7.41,15.24-14.79,22.79-22.25,10.71-10.58,21.35-21.24,32.05-31.84.79-.79,1.56-2.23,2.74-1.8,1.25.47.68,2.05.68,3.13.05,7.12-.07,14.24.07,21.36.05,2.53-.68,4.37-2.51,6.16-8.94,8.72-17.74,17.58-26.6,26.39Z"/>
    <path class="st3" d="M426.76,245.96c0,8.87-.08,17.75.06,26.62.03,2.33-.71,2.94-2.96,2.9-7.94-.12-15.88-.02-23.82-.09-.99,0-2.88.89-2.57-1.54,8.68-8.57,17.34-17.15,26.05-25.68.92-.9,1.5-2.46,3.24-2.22Z"/>
    <path class="st1" d="M603.42,216.54c-.01,8.86-.09,17.71.02,26.57.03,2.26-.6,2.97-2.91,2.94-8.85-.11-17.71-.02-26.57,0,.25-2,2.12-2.66,3.29-3.85,7.7-7.78,15.49-15.48,23.27-23.19.9-.89,1.93-1.65,2.89-2.47Z"/>
    <path class="st3" d="M632.39,216.42c-9.68.06-19.35.12-29.03.18,5.79-6.84,12.68-12.59,18.83-19.08,2.4-2.53,4.9-4.96,7.43-7.36.61-.58,1.23-1.73,2.27-1.13.74.42.46,1.48.47,2.27.02,8.37.02,16.74.02,25.12Z"/>
    <path class="st3" d="M603.23,334.86c.04,8.4.07,16.8.14,25.2.01,1.27.19,2.54.29,3.81-30.83,30.49-61.65,61-92.51,91.47-7.71,7.61-15.52,15.12-23.29,22.68-.51-2.48,1.07-5.93-.79-7.28-1.71-1.24-4.92-.43-7.47-.47-4.08-.07-8.16-.09-12.24-.14.29-.37.53-.77.86-1.09,15.98-15.89,31.98-31.75,47.94-47.66,9.34-9.31,18.6-18.71,27.9-28.06.2-.43.39-.86.59-1.29.61-.54,1.25-1.05,1.83-1.63,17.84-17.65,35.67-35.31,53.52-52.95.98-.97,1.77-2.2,3.23-2.59Z"/>
    <path class="st0" d="M544.07,393.31c-9.3,9.36-18.56,18.75-27.9,28.06-15.96,15.91-31.96,31.77-47.94,47.66-.33.32-.58.73-.86,1.09q-9.07.54-9.07-8.33c0-6.16-.08-12.33.04-18.49.04-2-.58-2.55-2.55-2.53-6.16.08-12.32-.04-18.48-.09,15.95-16.05,31.87-32.13,48.2-47.79,3.36.09,6.72.24,10.08.25,16.16.07,32.31.11,48.47.15Z"/>
    <path class="st0" d="M487.87,478.01c7.76-7.56,15.58-15.07,23.29-22.68,30.85-30.47,61.67-60.98,92.51-91.47,8.86-.01,17.71.03,26.57-.08,1.94-.02,2.58.48,2.55,2.5-.13,8.5-.09,17.01-.11,25.52,0-8.61,0-17.22,0-25.57-1.65-.7-2.07.21-2.6.73-24.39,24.13-48.76,48.27-73.13,72.42-.41.41-.75.88-1.13,1.33-3.09.58-6.3-.56-9.34.66-1.38,1.25-2.82,2.45-4.13,3.76-8.33,8.33-16.63,16.69-24.93,25.04,0,0,.02,0,.02,0-.97.82-2,1.59-2.9,2.48-8.9,8.75-17.77,17.51-26.66,26.27,0-6.96,0-13.92,0-20.89Z"/>
    <path class="st0" d="M685.94,528.72c-1.19,1.11-2.42,2.19-3.58,3.34-24.64,24.58-49.28,49.17-73.92,73.75-.91.9-1.88,1.74-2.82,2.61,0-10.04,0-20.07,0-30.11.78-.7,1.6-1.35,2.33-2.09,16.26-16.21,32.52-32.43,48.78-48.65,8.94.05,17.88.07,26.82.2.77.01,2.24-.93,2.38.94Z"/>
    <path class="st0" d="M516.84,588.13c-5.76,5.76-11.48,11.56-17.28,17.28-13.68,13.49-27.4,26.93-41.11,40.4,0-9.71-.01-19.43-.02-29.14,9.78-9.58,19.56-19.17,29.34-28.75,9.69.07,19.38.14,29.07.22Z"/>
    <path class="st3" d="M487.77,587.92c-9.78,9.58-19.56,19.17-29.34,28.75,0-9.71.01-19.41.02-29.12,1.1-1.03,2.22-2.04,3.3-3.1,8.62-8.45,17.24-16.91,25.86-25.37.05,9.61.11,19.22.16,28.83Z"/>
    <path class="st1" d="M487.87,498.9c8.88-8.76,17.76-17.53,26.66-26.27.9-.89,1.93-1.65,2.9-2.48-.08,8.74-.26,17.49-.19,26.23.02,2.49-.44,3.46-3.21,3.38-7.82-.21-15.64-.05-23.47-.11-.9,0-2.12.62-2.69-.76Z"/>
    <path class="st3" d="M517.41,470.15c8.31-8.35,16.61-16.71,24.93-25.04,1.32-1.32,2.75-2.51,4.13-3.76.05,8.84.05,17.69.17,26.53.02,1.79-.48,2.44-2.35,2.41-8.96-.12-17.92-.11-26.89-.14Z"/>
    <path class="st0" d="M546.49,559.22c-8.05,7.84-16.1,15.69-24.15,23.53-1.66,1.62-3.34,3.21-5.01,4.81-.05-8.94-.09-17.88-.15-26.82,0-1.27.02-2.22,1.77-2.2,8.94.08,17.89.05,26.83.1.24,0,.48.38.72.58Z"/>
    <path class="st0" d="M487.61,559.09c-8.62,8.46-17.23,16.92-25.86,25.37-1.08,1.05-2.2,2.06-3.3,3.1-.05-8.97-.08-17.94-.16-26.91-.01-1.38.23-2.13,1.88-2.11,8.86.07,17.71.05,26.57.08.29,0,.58.31.87.47Z"/>
    <path class="st0" d="M603.23,334.86c-1.46.39-2.25,1.62-3.23,2.59-17.85,17.64-35.68,35.3-53.52,52.95-.58.57-1.22,1.09-1.83,1.63,0-9.53,0-19.06,0-28.59,9.87-9.74,19.74-19.47,29.6-29.21,8.44.03,16.89.03,25.33.11,1.21.01,2.55-.52,3.63.53Z"/>
    <path class="st0" d="M426.59,363.81c-9.42,9.4-18.84,18.8-28.27,28.18-.31.31-.8.44-1.21.66.07-8.62.24-17.25.15-25.87-.02-2.44.6-3.15,3.08-3.1,8.75.18,17.5.11,26.25.13Z"/>
    <path class="st0" d="M456.07,334.83c-8.62,8.46-17.23,16.92-25.86,25.37-1.08,1.05-2.2,2.06-3.3,3.1-.05-8.97-.08-17.94-.16-26.91-.01-1.38.23-2.13,1.88-2.11,8.86.07,17.71.05,26.57.08.29,0,.58.31.87.47Z"/>
  </g>
</svg>